<svg width="487" height="470" viewBox="0 0 487 470" fill="none" xmlns="http://www.w3.org/2000/svg">
<g filter="url(#filter0_d_0_1)">
<path d="M473.145 227C432.864 299.674 319 424 237.645 452C156.29 480 20.1451 327 2.14506 227C-15.855 127 158.151 -15.9293 237.645 2.00008C317.139 19.9294 513.426 154.326 473.145 227Z" fill="#1A9AC2"/>
</g>
<g filter="url(#filter1_d_0_1)">
<path d="M227.138 132C227.99 122.625 225.717 115.286 220.32 109.983C214.922 104.585 205.831 101.886 193.047 101.886C184.903 101.886 178.085 102.833 172.592 104.727C167.195 106.621 162.981 109.225 159.95 112.54C157.015 115.854 155.168 119.689 154.411 124.045C153.558 127.455 153.606 130.58 154.553 133.42C155.594 136.167 157.536 138.676 160.376 140.949C163.312 143.222 167.147 145.258 171.882 147.057C176.712 148.856 182.441 150.466 189.07 151.886L211.797 157C227.327 160.409 240.348 164.907 250.859 170.494C261.465 175.987 269.799 182.521 275.859 190.097C281.92 197.672 285.897 206.148 287.791 215.523C289.78 224.898 289.827 235.125 287.933 246.205C284.714 265.333 277.28 281.527 265.632 294.784C253.984 308.042 238.786 318.127 220.036 325.04C201.286 331.953 179.6 335.409 154.979 335.409C129.789 335.409 108.388 331.669 90.7741 324.188C73.2552 316.612 60.5658 305.059 52.706 289.528C44.9408 273.903 43.0469 253.97 47.0241 229.727H122.024C120.888 238.629 121.835 246.11 124.865 252.17C127.895 258.231 132.772 262.824 139.496 265.949C146.219 269.074 154.6 270.636 164.638 270.636C173.161 270.636 180.452 269.595 186.513 267.511C192.573 265.428 197.356 262.54 200.859 258.847C204.363 255.153 206.494 250.939 207.251 246.205C208.009 241.848 207.251 237.966 204.979 234.557C202.706 231.148 198.587 228.07 192.621 225.324C186.655 222.578 178.464 220.068 168.047 217.795L140.206 211.545C115.49 205.864 96.8348 196.489 84.2401 183.42C71.6454 170.352 67.1946 152.455 70.8878 129.727C73.9181 111.167 81.5412 94.9735 93.7571 81.1477C106.068 67.2273 121.693 56.4318 140.632 48.7614C159.666 40.9962 180.736 37.1136 203.842 37.1136C227.327 37.1136 246.977 41.0436 262.791 48.9034C278.7 56.7633 290.111 67.7955 297.024 82C304.032 96.2045 305.926 112.871 302.706 132H227.138Z" fill="white" fill-opacity="0.65" shape-rendering="crispEdges"/>
</g>
<g filter="url(#filter2_d_0_1)">
<path d="M322.638 190C323.49 180.625 321.217 173.286 315.82 167.983C310.422 162.585 301.331 159.886 288.547 159.886C280.403 159.886 273.585 160.833 268.092 162.727C262.695 164.621 258.481 167.225 255.45 170.54C252.515 173.854 250.668 177.689 249.911 182.045C249.058 185.455 249.106 188.58 250.053 191.42C251.094 194.167 253.036 196.676 255.876 198.949C258.812 201.222 262.647 203.258 267.382 205.057C272.212 206.856 277.941 208.466 284.57 209.886L307.297 215C322.827 218.409 335.848 222.907 346.359 228.494C356.965 233.987 365.299 240.521 371.359 248.097C377.42 255.672 381.397 264.148 383.291 273.523C385.28 282.898 385.327 293.125 383.433 304.205C380.214 323.333 372.78 339.527 361.132 352.784C349.484 366.042 334.286 376.127 315.536 383.04C296.786 389.953 275.1 393.409 250.479 393.409C225.289 393.409 203.888 389.669 186.274 382.188C168.755 374.612 156.066 363.059 148.206 347.528C140.441 331.903 138.547 311.97 142.524 287.727H217.524C216.388 296.629 217.335 304.11 220.365 310.17C223.395 316.231 228.272 320.824 234.996 323.949C241.719 327.074 250.1 328.636 260.138 328.636C268.661 328.636 275.952 327.595 282.013 325.511C288.073 323.428 292.856 320.54 296.359 316.847C299.863 313.153 301.994 308.939 302.751 304.205C303.509 299.848 302.751 295.966 300.479 292.557C298.206 289.148 294.087 286.07 288.121 283.324C282.155 280.578 273.964 278.068 263.547 275.795L235.706 269.545C210.99 263.864 192.335 254.489 179.74 241.42C167.145 228.352 162.695 210.455 166.388 187.727C169.418 169.167 177.041 152.973 189.257 139.148C201.568 125.227 217.193 114.432 236.132 106.761C255.166 98.9962 276.236 95.1136 299.342 95.1136C322.827 95.1136 342.477 99.0436 358.291 106.903C374.2 114.763 385.611 125.795 392.524 140C399.532 154.205 401.426 170.871 398.206 190H322.638Z" fill="white"/>
</g>
<defs>
<filter id="filter0_d_0_1" x="0.848297" y="0.463989" width="485.683" height="468.902" filterUnits="userSpaceOnUse" color-interpolation-filters="sRGB">
<feFlood flood-opacity="0" result="BackgroundImageFix"/>
<feColorMatrix in="SourceAlpha" type="matrix" values="0 0 0 0 0 0 0 0 0 0 0 0 0 0 0 0 0 0 127 0" result="hardAlpha"/>
<feOffset dx="4" dy="10"/>
<feGaussianBlur stdDeviation="2"/>
<feComposite in2="hardAlpha" operator="out"/>
<feColorMatrix type="matrix" values="0 0 0 0 0 0 0 0 0 0 0 0 0 0 0 0 0 0 0.25 0"/>
<feBlend mode="normal" in2="BackgroundImageFix" result="effect1_dropShadow_0_1"/>
<feBlend mode="normal" in="SourceGraphic" in2="effect1_dropShadow_0_1" result="shape"/>
</filter>
<filter id="filter1_d_0_1" x="37.0582" y="37.1136" width="274.477" height="306.295" filterUnits="userSpaceOnUse" color-interpolation-filters="sRGB">
<feFlood flood-opacity="0" result="BackgroundImageFix"/>
<feColorMatrix in="SourceAlpha" type="matrix" values="0 0 0 0 0 0 0 0 0 0 0 0 0 0 0 0 0 0 127 0" result="hardAlpha"/>
<feOffset dy="4"/>
<feGaussianBlur stdDeviation="2"/>
<feComposite in2="hardAlpha" operator="out"/>
<feColorMatrix type="matrix" values="0 0 0 0 0 0 0 0 0 0 0 0 0 0 0 0 0 0 0.25 0"/>
<feBlend mode="normal" in2="BackgroundImageFix" result="effect1_dropShadow_0_1"/>
<feBlend mode="normal" in="SourceGraphic" in2="effect1_dropShadow_0_1" result="shape"/>
</filter>
<filter id="filter2_d_0_1" x="132.558" y="95.1136" width="274.477" height="306.295" filterUnits="userSpaceOnUse" color-interpolation-filters="sRGB">
<feFlood flood-opacity="0" result="BackgroundImageFix"/>
<feColorMatrix in="SourceAlpha" type="matrix" values="0 0 0 0 0 0 0 0 0 0 0 0 0 0 0 0 0 0 127 0" result="hardAlpha"/>
<feOffset dy="4"/>
<feGaussianBlur stdDeviation="2"/>
<feComposite in2="hardAlpha" operator="out"/>
<feColorMatrix type="matrix" values="0 0 0 0 0 0 0 0 0 0 0 0 0 0 0 0 0 0 0.25 0"/>
<feBlend mode="normal" in2="BackgroundImageFix" result="effect1_dropShadow_0_1"/>
<feBlend mode="normal" in="SourceGraphic" in2="effect1_dropShadow_0_1" result="shape"/>
</filter>
</defs>
</svg>
